<svg width="9" height="16" viewBox="0 0 9 16" fill="none" xmlns="http://www.w3.org/2000/svg">
<path d="M4.51953 1.6875L7.97266 5.14062C8.09115 5.25911 8.15039 5.40299 8.15039 5.57227C8.15039 5.74154 8.09115 5.88542 7.97266 6.00391L7.38867 6.5625C7.27018 6.68099 7.1263 6.74023 6.95703 6.74023C6.78776 6.74023 6.64388 6.68099 6.52539 6.5625L4.08789 4.125L1.65039 6.5625C1.5319 6.68099 1.38802 6.74023 1.21875 6.74023C1.04948 6.74023 0.905599 6.68099 0.787109 6.5625L0.203125 6.00391C0.0846354 5.88542 0.0253906 5.74154 0.0253906 5.57227C0.0253906 5.40299 0.0846354 5.25911 0.203125 5.14062L3.65625 1.6875C3.77474 1.56901 3.91862 1.50977 4.08789 1.50977C4.25716 1.50977 4.40104 1.56901 4.51953 1.6875Z" fill="#fff"/>
<path d="M3.65625 13.5625L0.203125 10.1094C0.0846354 9.99089 0.0253906 9.84701 0.0253906 9.67773C0.0253906 9.50846 0.0846354 9.36458 0.203125 9.24609L0.787109 8.6875C0.905599 8.56901 1.04948 8.50977 1.21875 8.50977C1.38802 8.50977 1.5319 8.56901 1.65039 8.6875L4.08789 11.125L6.52539 8.6875C6.64388 8.56901 6.78776 8.50977 6.95703 8.50977C7.1263 8.50977 7.27018 8.56901 7.38867 8.6875L7.97266 9.24609C8.09115 9.36458 8.15039 9.50846 8.15039 9.67773C8.15039 9.84701 8.09115 9.99089 7.97266 10.1094L4.51953 13.5625C4.40104 13.681 4.25716 13.7402 4.08789 13.7402C3.91862 13.7402 3.77474 13.681 3.65625 13.5625Z" fill="#fff"/>
</svg>
