<svg width="9" height="6" viewBox="0 0 9 6" fill="none" xmlns="http://www.w3.org/2000/svg">
<path d="M3.65625 5.5625L0.203125 2.10938C0.0846354 1.99089 0.0253906 1.84701 0.0253906 1.67773C0.0253906 1.50846 0.0846354 1.36458 0.203125 1.24609L0.787109 0.6875C0.905599 0.56901 1.04948 0.509766 1.21875 0.509766C1.38802 0.509766 1.5319 0.56901 1.65039 0.6875L4.08789 3.125L6.52539 0.6875C6.64388 0.56901 6.78776 0.509766 6.95703 0.509766C7.1263 0.509766 7.27018 0.56901 7.38867 0.6875L7.97266 1.24609C8.09115 1.36458 8.15039 1.50846 8.15039 1.67773C8.15039 1.84701 8.09115 1.99089 7.97266 2.10938L4.51953 5.5625C4.40104 5.68099 4.25716 5.74023 4.08789 5.74023C3.91862 5.74023 3.77474 5.68099 3.65625 5.5625Z" fill="#fff"/>
</svg>
