<svg width="9" height="6" viewBox="0 0 9 6" fill="none" xmlns="http://www.w3.org/2000/svg">
<path d="M4.51953 0.6875L7.97266 4.14062C8.09115 4.25911 8.15039 4.40299 8.15039 4.57227C8.15039 4.74154 8.09115 4.88542 7.97266 5.00391L7.38867 5.5625C7.27018 5.68099 7.1263 5.74023 6.95703 5.74023C6.78776 5.74023 6.64388 5.68099 6.52539 5.5625L4.08789 3.125L1.65039 5.5625C1.5319 5.68099 1.38802 5.74023 1.21875 5.74023C1.04948 5.74023 0.905599 5.68099 0.787109 5.5625L0.203125 5.00391C0.0846354 4.88542 0.0253906 4.74154 0.0253906 4.57227C0.0253906 4.40299 0.0846354 4.25911 0.203125 4.14062L3.65625 0.6875C3.77474 0.56901 3.91862 0.509766 4.08789 0.509766C4.25716 0.509766 4.40104 0.56901 4.51953 0.6875Z" fill="#fff"/>
</svg>
